<svg width="18" height="21" viewBox="0 0 18 21" fill="none" xmlns="http://www.w3.org/2000/svg">
<path d="M15.364 2.63606C17.0163 4.28819 17.9613 6.51817 17.9992 8.85447C18.0371 11.1908 17.1649 13.4502 15.567 15.1551L15.364 15.3651L11.121 19.6071C10.5826 20.1451 9.85987 20.4584 9.09915 20.4834C8.33843 20.5085 7.59662 20.2435 7.02399 19.7421L6.87999 19.6071L2.63599 15.3641C0.948156 13.6762 -6.10352e-05 11.387 -6.10352e-05 9.00006C-6.10352e-05 6.61309 0.948156 4.32389 2.63599 2.63606C4.32383 0.948218 6.61303 0 8.99999 0C11.387 0 13.6762 0.948218 15.364 2.63606ZM8.99999 6.00006C8.60603 6.00006 8.21592 6.07765 7.85194 6.22842C7.48797 6.37918 7.15725 6.60016 6.87867 6.87873C6.6001 7.15731 6.37912 7.48803 6.22836 7.85201C6.07759 8.21598 5.99999 8.60609 5.99999 9.00006C5.99999 9.39402 6.07759 9.78413 6.22836 10.1481C6.37912 10.5121 6.6001 10.8428 6.87867 11.1214C7.15725 11.4 7.48797 11.6209 7.85194 11.7717C8.21592 11.9225 8.60603 12.0001 8.99999 12.0001C9.79564 12.0001 10.5587 11.684 11.1213 11.1214C11.6839 10.5588 12 9.7957 12 9.00006C12 8.20441 11.6839 7.44134 11.1213 6.87873C10.5587 6.31613 9.79564 6.00006 8.99999 6.00006Z" fill="white"/>
</svg>
